<svg
  width="76"
  height="24"
  viewBox="0 0 76 24"
  fill="none"
  xmlns="http://www.w3.org/2000/svg"
>
  <g fill="#16A34A">
    <path d="M0 22V2h4.5l5.5 11L15.5 2H20v20h-4V9.5L11 20h-2L4 9.5V22H0z"/>
    <path d="M21 14c0-5 3.4-8 8-8s8 3 8 8-3.4 8-8 8-8-3-8-8zm4 0c0 3 1.7 4.5 4 4.5s4-1.5 4-4.5-1.7-4.5-4-4.5-4 1.5-4 4.5z"/>
    <path d="M38 22V6h3.8v2.2c1.2-1.6 3-2.6 5.4-2.6 3.8 0 6 2.4 6 6.6V22h-4V12.8c0-2.2-1.1-3.4-3.2-3.4-2.1 0-3.9 1.5-3.9 4V22h-4z"/>
    <path d="M55 22V6h4v16h-4z"/>
    <path d="M55 2.5c0-1.3.9-2.3 2-2.3s2 1 2 2.3-.9 2.3-2 2.3-2-1-2-2.3z"/>
    <path d="M60 14c0-5 3.3-8 8-8 4.9 0 7.7 3.2 7.7 8.4v1H64c.3 2.2 1.9 3.4 4.1 3.4 1.6 0 2.9-.6 3.7-1.6l3 2c-1.6 2-4.1 3.2-6.9 3.2-4.8 0-7.9-3.1-7.9-8zm4-.9h7.7c-.2-2-1.5-3.2-3.7-3.2-2 0-3.4 1.2-4 3.2z"/>
  </g>
</svg>